<mxfile host="app.diagrams.net" agent="Mozilla/5.0 (X11; Ubuntu; Linux x86_64; rv:138.0) Gecko/20100101 Firefox/138.0" version="27.0.9">
  <diagram name="PÃ¡gina-1" id="jNYX_NDZH57dvLh5J_6Y">
    <mxGraphModel dx="2192" dy="652" grid="1" gridSize="10" guides="1" tooltips="1" connect="1" arrows="1" fold="1" page="1" pageScale="1" pageWidth="827" pageHeight="1169" math="0" shadow="0">
      <root>
        <mxCell id="0" />
        <mxCell id="1" parent="0" />
        <mxCell id="9rge0dwjAO5OtHbX3IIU-1" value="DOCTORES" style="rounded=1;whiteSpace=wrap;html=1;" parent="1" vertex="1">
          <mxGeometry x="178" y="410" width="120" height="60" as="geometry" />
        </mxCell>
        <mxCell id="9rge0dwjAO5OtHbX3IIU-4" value="PACIENTES" style="rounded=1;whiteSpace=wrap;html=1;" parent="1" vertex="1">
          <mxGeometry x="490" y="130" width="120" height="60" as="geometry" />
        </mxCell>
        <mxCell id="9rge0dwjAO5OtHbX3IIU-5" value="ADMISIONES" style="rounded=1;whiteSpace=wrap;html=1;" parent="1" vertex="1">
          <mxGeometry x="178" y="130" width="120" height="60" as="geometry" />
        </mxCell>
        <mxCell id="9rge0dwjAO5OtHbX3IIU-6" value="PROVINCIAS" style="rounded=1;whiteSpace=wrap;html=1;" parent="1" vertex="1">
          <mxGeometry x="690" y="270" width="120" height="60" as="geometry" />
        </mxCell>
        <mxCell id="9rge0dwjAO5OtHbX3IIU-10" value="&lt;font style=&quot;font-size: 18px;&quot;&gt;ESQUEMA HOSPITAL (BD SCHEMA)&lt;/font&gt;" style="text;html=1;align=center;verticalAlign=middle;whiteSpace=wrap;rounded=0;" parent="1" vertex="1">
          <mxGeometry x="298" y="20" width="322" height="30" as="geometry" />
        </mxCell>
        <mxCell id="9rge0dwjAO5OtHbX3IIU-11" value="pertenece" style="rhombus;whiteSpace=wrap;html=1;" parent="1" vertex="1">
          <mxGeometry x="510" y="260" width="80" height="80" as="geometry" />
        </mxCell>
        <mxCell id="9rge0dwjAO5OtHbX3IIU-12" style="edgeStyle=orthogonalEdgeStyle;rounded=0;orthogonalLoop=1;jettySize=auto;html=1;exitX=0.5;exitY=1;exitDx=0;exitDy=0;endArrow=none;startFill=0;entryX=0.5;entryY=0;entryDx=0;entryDy=0;" parent="1" source="9rge0dwjAO5OtHbX3IIU-4" target="9rge0dwjAO5OtHbX3IIU-11" edge="1">
          <mxGeometry relative="1" as="geometry">
            <mxPoint x="550" y="240" as="targetPoint" />
          </mxGeometry>
        </mxCell>
        <mxCell id="9rge0dwjAO5OtHbX3IIU-14" style="edgeStyle=orthogonalEdgeStyle;rounded=0;orthogonalLoop=1;jettySize=auto;html=1;exitX=0;exitY=0.5;exitDx=0;exitDy=0;endArrow=none;startFill=0;entryX=1;entryY=0.5;entryDx=0;entryDy=0;" parent="1" source="9rge0dwjAO5OtHbX3IIU-6" target="9rge0dwjAO5OtHbX3IIU-11" edge="1">
          <mxGeometry relative="1" as="geometry">
            <mxPoint x="560" y="280" as="sourcePoint" />
            <mxPoint x="560" y="450" as="targetPoint" />
          </mxGeometry>
        </mxCell>
        <mxCell id="9rge0dwjAO5OtHbX3IIU-15" value="(1,1)" style="text;html=1;align=center;verticalAlign=middle;whiteSpace=wrap;rounded=0;" parent="1" vertex="1">
          <mxGeometry x="550" y="190" width="60" height="30" as="geometry" />
        </mxCell>
        <mxCell id="9rge0dwjAO5OtHbX3IIU-16" value="(0,N)" style="text;html=1;align=center;verticalAlign=middle;whiteSpace=wrap;rounded=0;" parent="1" vertex="1">
          <mxGeometry x="630" y="330" width="60" height="30" as="geometry" />
        </mxCell>
        <mxCell id="9rge0dwjAO5OtHbX3IIU-17" value="1:N" style="text;html=1;align=center;verticalAlign=middle;whiteSpace=wrap;rounded=0;" parent="1" vertex="1">
          <mxGeometry x="440" y="285" width="60" height="30" as="geometry" />
        </mxCell>
        <mxCell id="9rge0dwjAO5OtHbX3IIU-18" value="registro" style="rhombus;whiteSpace=wrap;html=1;" parent="1" vertex="1">
          <mxGeometry x="370" y="120" width="80" height="80" as="geometry" />
        </mxCell>
        <mxCell id="9rge0dwjAO5OtHbX3IIU-19" style="edgeStyle=orthogonalEdgeStyle;rounded=0;orthogonalLoop=1;jettySize=auto;html=1;exitX=0;exitY=0.5;exitDx=0;exitDy=0;endArrow=none;startFill=0;" parent="1" source="9rge0dwjAO5OtHbX3IIU-4" target="9rge0dwjAO5OtHbX3IIU-18" edge="1">
          <mxGeometry relative="1" as="geometry">
            <mxPoint x="500" y="210" as="sourcePoint" />
            <mxPoint x="500" y="280" as="targetPoint" />
          </mxGeometry>
        </mxCell>
        <mxCell id="9rge0dwjAO5OtHbX3IIU-22" style="edgeStyle=orthogonalEdgeStyle;rounded=0;orthogonalLoop=1;jettySize=auto;html=1;exitX=0;exitY=0.5;exitDx=0;exitDy=0;endArrow=none;startFill=0;" parent="1" source="9rge0dwjAO5OtHbX3IIU-18" edge="1">
          <mxGeometry relative="1" as="geometry">
            <mxPoint x="349" y="160" as="sourcePoint" />
            <mxPoint x="299" y="160" as="targetPoint" />
          </mxGeometry>
        </mxCell>
        <mxCell id="9rge0dwjAO5OtHbX3IIU-23" value="(1,N)" style="text;html=1;align=center;verticalAlign=middle;whiteSpace=wrap;rounded=0;" parent="1" vertex="1">
          <mxGeometry x="440" y="110" width="60" height="30" as="geometry" />
        </mxCell>
        <mxCell id="9rge0dwjAO5OtHbX3IIU-24" value="(1,1)" style="text;html=1;align=center;verticalAlign=middle;whiteSpace=wrap;rounded=0;" parent="1" vertex="1">
          <mxGeometry x="290" y="120" width="60" height="30" as="geometry" />
        </mxCell>
        <mxCell id="9rge0dwjAO5OtHbX3IIU-25" value="1:N" style="text;html=1;align=center;verticalAlign=middle;whiteSpace=wrap;rounded=0;" parent="1" vertex="1">
          <mxGeometry x="370" y="210" width="60" height="30" as="geometry" />
        </mxCell>
        <mxCell id="9rge0dwjAO5OtHbX3IIU-26" value="asginar" style="rhombus;whiteSpace=wrap;html=1;" parent="1" vertex="1">
          <mxGeometry x="198" y="260" width="80" height="80" as="geometry" />
        </mxCell>
        <mxCell id="9rge0dwjAO5OtHbX3IIU-27" style="edgeStyle=orthogonalEdgeStyle;rounded=0;orthogonalLoop=1;jettySize=auto;html=1;exitX=0.5;exitY=1;exitDx=0;exitDy=0;endArrow=none;startFill=0;entryX=0.5;entryY=0;entryDx=0;entryDy=0;" parent="1" edge="1">
          <mxGeometry relative="1" as="geometry">
            <mxPoint x="237.66000000000003" y="190" as="sourcePoint" />
            <mxPoint x="237.66000000000003" y="260" as="targetPoint" />
          </mxGeometry>
        </mxCell>
        <mxCell id="9rge0dwjAO5OtHbX3IIU-28" style="edgeStyle=orthogonalEdgeStyle;rounded=0;orthogonalLoop=1;jettySize=auto;html=1;exitX=0.5;exitY=1;exitDx=0;exitDy=0;endArrow=none;startFill=0;entryX=0.5;entryY=0;entryDx=0;entryDy=0;" parent="1" edge="1">
          <mxGeometry relative="1" as="geometry">
            <mxPoint x="238" y="340" as="sourcePoint" />
            <mxPoint x="238" y="410" as="targetPoint" />
          </mxGeometry>
        </mxCell>
        <mxCell id="9rge0dwjAO5OtHbX3IIU-29" value="(1,1)" style="text;html=1;align=center;verticalAlign=middle;whiteSpace=wrap;rounded=0;" parent="1" vertex="1">
          <mxGeometry x="180" y="190" width="60" height="30" as="geometry" />
        </mxCell>
        <mxCell id="9rge0dwjAO5OtHbX3IIU-30" value="(0,N)" style="text;html=1;align=center;verticalAlign=middle;whiteSpace=wrap;rounded=0;" parent="1" vertex="1">
          <mxGeometry x="238" y="370" width="60" height="30" as="geometry" />
        </mxCell>
        <mxCell id="JeMpwNhejxC3z_u1ijAA-4" value="ALERGIAS" style="rounded=1;whiteSpace=wrap;html=1;" vertex="1" parent="1">
          <mxGeometry x="510" y="585" width="120" height="60" as="geometry" />
        </mxCell>
        <mxCell id="JeMpwNhejxC3z_u1ijAA-5" value="PACIENTE" style="rounded=1;whiteSpace=wrap;html=1;" vertex="1" parent="1">
          <mxGeometry x="198" y="585" width="120" height="60" as="geometry" />
        </mxCell>
        <mxCell id="JeMpwNhejxC3z_u1ijAA-6" style="edgeStyle=orthogonalEdgeStyle;rounded=0;orthogonalLoop=1;jettySize=auto;html=1;exitX=0;exitY=0.5;exitDx=0;exitDy=0;endArrow=none;startFill=0;" edge="1" source="JeMpwNhejxC3z_u1ijAA-4" parent="1">
          <mxGeometry relative="1" as="geometry">
            <mxPoint x="520" y="665" as="sourcePoint" />
            <mxPoint x="460" y="615" as="targetPoint" />
          </mxGeometry>
        </mxCell>
        <mxCell id="JeMpwNhejxC3z_u1ijAA-7" style="edgeStyle=orthogonalEdgeStyle;rounded=0;orthogonalLoop=1;jettySize=auto;html=1;exitX=0;exitY=0.5;exitDx=0;exitDy=0;endArrow=none;startFill=0;" edge="1" parent="1">
          <mxGeometry relative="1" as="geometry">
            <mxPoint x="380" y="615" as="sourcePoint" />
            <mxPoint x="319" y="615" as="targetPoint" />
          </mxGeometry>
        </mxCell>
        <mxCell id="JeMpwNhejxC3z_u1ijAA-8" value="padece" style="rhombus;whiteSpace=wrap;html=1;" vertex="1" parent="1">
          <mxGeometry x="380" y="575" width="80" height="80" as="geometry" />
        </mxCell>
        <mxCell id="JeMpwNhejxC3z_u1ijAA-9" value="&lt;div&gt;(1,N)&lt;/div&gt;" style="text;html=1;align=center;verticalAlign=middle;whiteSpace=wrap;rounded=0;" vertex="1" parent="1">
          <mxGeometry x="460" y="575" width="60" height="30" as="geometry" />
        </mxCell>
        <mxCell id="JeMpwNhejxC3z_u1ijAA-10" value="(0,N)" style="text;html=1;align=center;verticalAlign=middle;whiteSpace=wrap;rounded=0;" vertex="1" parent="1">
          <mxGeometry x="310" y="630" width="70" height="35" as="geometry" />
        </mxCell>
        <mxCell id="JeMpwNhejxC3z_u1ijAA-11" value="&lt;div&gt;N:M&lt;/div&gt;" style="text;html=1;align=center;verticalAlign=middle;whiteSpace=wrap;rounded=0;" vertex="1" parent="1">
          <mxGeometry x="390" y="540" width="60" height="30" as="geometry" />
        </mxCell>
        <mxCell id="JeMpwNhejxC3z_u1ijAA-12" value="pacientes" style="shape=process;whiteSpace=wrap;html=1;backgroundOutline=1;" vertex="1" parent="1">
          <mxGeometry x="130" y="760" width="120" height="60" as="geometry" />
        </mxCell>
        <mxCell id="JeMpwNhejxC3z_u1ijAA-13" value="alergias" style="shape=process;whiteSpace=wrap;html=1;backgroundOutline=1;" vertex="1" parent="1">
          <mxGeometry x="560" y="760" width="120" height="60" as="geometry" />
        </mxCell>
        <mxCell id="JeMpwNhejxC3z_u1ijAA-14" value="pacientes_alergias" style="shape=process;whiteSpace=wrap;html=1;backgroundOutline=1;" vertex="1" parent="1">
          <mxGeometry x="340" y="760" width="120" height="60" as="geometry" />
        </mxCell>
        <mxCell id="JeMpwNhejxC3z_u1ijAA-15" value="&lt;div&gt;id_paciente, &lt;br&gt;&lt;/div&gt;&lt;div&gt;id_alergia&lt;/div&gt;&lt;div&gt;id_paciente_alergias&lt;/div&gt;&lt;div&gt;&lt;br&gt;&lt;/div&gt;" style="text;html=1;align=center;verticalAlign=middle;whiteSpace=wrap;rounded=0;" vertex="1" parent="1">
          <mxGeometry x="340" y="840" width="110" height="30" as="geometry" />
        </mxCell>
        <mxCell id="JeMpwNhejxC3z_u1ijAA-27" value="" style="edgeStyle=orthogonalEdgeStyle;rounded=0;orthogonalLoop=1;jettySize=auto;html=1;" edge="1" parent="1" source="JeMpwNhejxC3z_u1ijAA-16" target="JeMpwNhejxC3z_u1ijAA-20">
          <mxGeometry relative="1" as="geometry" />
        </mxCell>
        <mxCell id="JeMpwNhejxC3z_u1ijAA-16" value="POBLACIONES" style="rounded=1;whiteSpace=wrap;html=1;" vertex="1" parent="1">
          <mxGeometry x="352" y="1126" width="120" height="60" as="geometry" />
        </mxCell>
        <mxCell id="JeMpwNhejxC3z_u1ijAA-17" value="PACIENTE" style="rounded=1;whiteSpace=wrap;html=1;" vertex="1" parent="1">
          <mxGeometry x="40" y="1126" width="120" height="60" as="geometry" />
        </mxCell>
        <mxCell id="JeMpwNhejxC3z_u1ijAA-18" style="edgeStyle=orthogonalEdgeStyle;rounded=0;orthogonalLoop=1;jettySize=auto;html=1;exitX=0;exitY=0.5;exitDx=0;exitDy=0;endArrow=none;startFill=0;" edge="1" source="JeMpwNhejxC3z_u1ijAA-16" parent="1">
          <mxGeometry relative="1" as="geometry">
            <mxPoint x="362" y="1206" as="sourcePoint" />
            <mxPoint x="302" y="1156" as="targetPoint" />
          </mxGeometry>
        </mxCell>
        <mxCell id="JeMpwNhejxC3z_u1ijAA-19" style="edgeStyle=orthogonalEdgeStyle;rounded=0;orthogonalLoop=1;jettySize=auto;html=1;exitX=0;exitY=0.5;exitDx=0;exitDy=0;endArrow=none;startFill=0;" edge="1" parent="1">
          <mxGeometry relative="1" as="geometry">
            <mxPoint x="222" y="1156" as="sourcePoint" />
            <mxPoint x="161" y="1156" as="targetPoint" />
          </mxGeometry>
        </mxCell>
        <mxCell id="JeMpwNhejxC3z_u1ijAA-20" value="pertecene" style="rhombus;whiteSpace=wrap;html=1;" vertex="1" parent="1">
          <mxGeometry x="222" y="1116" width="80" height="80" as="geometry" />
        </mxCell>
        <mxCell id="JeMpwNhejxC3z_u1ijAA-23" value="PROVINCIA" style="rounded=1;whiteSpace=wrap;html=1;" vertex="1" parent="1">
          <mxGeometry x="680" y="1132" width="119" height="64" as="geometry" />
        </mxCell>
        <mxCell id="JeMpwNhejxC3z_u1ijAA-24" style="edgeStyle=orthogonalEdgeStyle;rounded=0;orthogonalLoop=1;jettySize=auto;html=1;exitX=0;exitY=0.5;exitDx=0;exitDy=0;endArrow=none;startFill=0;entryX=1;entryY=0.5;entryDx=0;entryDy=0;" edge="1" source="JeMpwNhejxC3z_u1ijAA-23" parent="1" target="JeMpwNhejxC3z_u1ijAA-25">
          <mxGeometry relative="1" as="geometry">
            <mxPoint x="682" y="1211" as="sourcePoint" />
            <mxPoint x="622" y="1161" as="targetPoint" />
            <Array as="points">
              <mxPoint x="647" y="1161" />
              <mxPoint x="647" y="1162" />
              <mxPoint x="611" y="1162" />
            </Array>
          </mxGeometry>
        </mxCell>
        <mxCell id="JeMpwNhejxC3z_u1ijAA-25" value="pertenece" style="rhombus;whiteSpace=wrap;html=1;" vertex="1" parent="1">
          <mxGeometry x="534" y="1121" width="77" height="79" as="geometry" />
        </mxCell>
        <mxCell id="JeMpwNhejxC3z_u1ijAA-26" value="&lt;div&gt;(1,1)&lt;/div&gt;" style="text;html=1;align=center;verticalAlign=middle;whiteSpace=wrap;rounded=0;" vertex="1" parent="1">
          <mxGeometry x="142" y="1186" width="60" height="30" as="geometry" />
        </mxCell>
        <mxCell id="JeMpwNhejxC3z_u1ijAA-28" style="edgeStyle=orthogonalEdgeStyle;rounded=0;orthogonalLoop=1;jettySize=auto;html=1;exitX=0;exitY=0.5;exitDx=0;exitDy=0;endArrow=none;startFill=0;" edge="1" parent="1">
          <mxGeometry relative="1" as="geometry">
            <mxPoint x="533" y="1160.5" as="sourcePoint" />
            <mxPoint x="472" y="1160.5" as="targetPoint" />
          </mxGeometry>
        </mxCell>
        <mxCell id="JeMpwNhejxC3z_u1ijAA-29" value="&lt;div&gt;(1,1)&lt;/div&gt;" style="text;html=1;align=center;verticalAlign=middle;whiteSpace=wrap;rounded=0;" vertex="1" parent="1">
          <mxGeometry x="442" y="1186" width="60" height="30" as="geometry" />
        </mxCell>
        <mxCell id="JeMpwNhejxC3z_u1ijAA-30" value="&lt;div&gt;(1,N)&lt;/div&gt;" style="text;html=1;align=center;verticalAlign=middle;whiteSpace=wrap;rounded=0;" vertex="1" parent="1">
          <mxGeometry x="322" y="1186" width="60" height="30" as="geometry" />
        </mxCell>
        <mxCell id="JeMpwNhejxC3z_u1ijAA-31" value="&lt;div&gt;(1,N)&lt;/div&gt;" style="text;html=1;align=center;verticalAlign=middle;whiteSpace=wrap;rounded=0;" vertex="1" parent="1">
          <mxGeometry x="642" y="1186" width="60" height="30" as="geometry" />
        </mxCell>
        <mxCell id="JeMpwNhejxC3z_u1ijAA-32" value="1:N" style="text;html=1;align=center;verticalAlign=middle;whiteSpace=wrap;rounded=0;" vertex="1" parent="1">
          <mxGeometry x="140" y="290" width="60" height="30" as="geometry" />
        </mxCell>
        <mxCell id="JeMpwNhejxC3z_u1ijAA-33" value="" style="shape=flexArrow;endArrow=classic;startArrow=classic;html=1;rounded=0;" edge="1" parent="1">
          <mxGeometry width="100" height="100" relative="1" as="geometry">
            <mxPoint x="549" y="735" as="sourcePoint" />
            <mxPoint x="549" y="665" as="targetPoint" />
          </mxGeometry>
        </mxCell>
        <mxCell id="JeMpwNhejxC3z_u1ijAA-34" value="Al transformar relaciones N:M, aparece por norma una tabla intermedia" style="text;html=1;align=center;verticalAlign=middle;whiteSpace=wrap;rounded=0;" vertex="1" parent="1">
          <mxGeometry x="590" y="680" width="240" height="30" as="geometry" />
        </mxCell>
        <mxCell id="JeMpwNhejxC3z_u1ijAA-35" value="&lt;h1 style=&quot;margin-top: 0px;&quot;&gt;FN1&lt;/h1&gt;&lt;p&gt;Alergias no puede ser un atributo multievaluado. No debo tener una lista en una columna.&lt;/p&gt;" style="text;html=1;whiteSpace=wrap;overflow=hidden;rounded=0;" vertex="1" parent="1">
          <mxGeometry x="-30" y="510" width="180" height="120" as="geometry" />
        </mxCell>
        <mxCell id="JeMpwNhejxC3z_u1ijAA-36" value="&lt;h1 style=&quot;margin-top: 0px;&quot;&gt;FN3&lt;/h1&gt;&lt;p&gt;No debo tener atributos No clave con dependencias transitivas. &lt;br&gt;&lt;/p&gt;&lt;p&gt;Si la poblaciÃ³n determina la provincia, deben crearse nuevas tablas independientes&lt;/p&gt;" style="text;html=1;whiteSpace=wrap;overflow=hidden;rounded=0;" vertex="1" parent="1">
          <mxGeometry x="827" y="1104" width="180" height="120" as="geometry" />
        </mxCell>
        <mxCell id="JeMpwNhejxC3z_u1ijAA-37" value="&lt;h1 style=&quot;margin-top: 0px;&quot;&gt;FN2&lt;/h1&gt;Si seguimos el consejo de claves primarias numÃ©ricas artificiales (nunca compuestas), omitimos de raÃ­z en problema de la FN2 de DEPENDENCIAS PARCIALES" style="text;html=1;whiteSpace=wrap;overflow=hidden;rounded=0;" vertex="1" parent="1">
          <mxGeometry x="290" y="920" width="180" height="120" as="geometry" />
        </mxCell>
      </root>
    </mxGraphModel>
  </diagram>
</mxfile>
